# OBJ written from D:\Workspace\DestroyIt - Collab\Assets\DestroyIt\Demos (safe to delete)\SUV Showcase Scene\Military SUV Engine.obj
# Units	meters

o Mesh
v 0.649009 -0.351751 0.178852
v 0.649009 -0.0394969 0.359131
v 0.649009 0.27276 0.178852
v 0.649009 0.27276 -0.181709
v 0.649009 -0.0394969 -0.361991
v 0.649009 -0.351751 -0.181709
v -0.649009 -0.351751 0.178852
v -0.649009 -0.0394969 0.359131
v -0.649009 0.27276 0.178852
v -0.649009 0.27276 -0.181709
v -0.649009 -0.0394969 -0.361991
v -0.649009 -0.351751 -0.181709
v 0.462853 -0.0368239 -0.358911
v 0.462853 0.0444827 -0.499736
v 0.462853 0.350181 -0.323243
v 0.462853 0.268874 -0.182416
v -0.462853 -0.0368239 -0.358911
v -0.462853 0.0444827 -0.499736
v -0.462853 0.350181 -0.323243
v -0.462853 0.268874 -0.182416
v 0.462853 0.0460529 0.499736
v 0.462853 -0.0352536 0.358911
v 0.462853 0.270445 0.182416
v 0.462853 0.351751 0.32324
v -0.462853 0.0460529 0.499736
v -0.462853 -0.0352536 0.358911
v -0.462853 0.270445 0.182416
v -0.462853 0.351751 0.323243
vn 0.174818 -3.82076e-009 -6.61775e-009
vn 3.82076e-009 -0.0874087 0.151396
vn 7.64152e-009 0.0874088 0.151396
vn 3.82076e-009 0.174818 -1.3342e-008
vn -3.82076e-009 0.0874087 -0.151396
vn -7.64152e-009 -0.0874088 -0.151396
vn -3.82076e-009 -0.174818 -1.93889e-010
vn -0.174818 3.82076e-009 6.61775e-009
vn -6.61775e-009 -0.151396 -0.0874087
vn 6.61775e-009 0.151396 0.0874087
vn -7.84989e-018 -0.151396 0.0874088
vn 7.84989e-018 0.151396 -0.0874088
vt 0.509872 0.381273
vt 0.396867 0.379301
vt 0.342073 0.280449
vt 0.400284 0.183571
vt 0.513289 0.185543
vt 0.568083 0.284394
vt 0.210981 0.570036
vt 0.207108 0.183887
vt 0.336666 0.183217
vt 0.340539 0.569367
vt 0.466224 0.182547
vt 0.470097 0.568697
vt 0.595782 0.181877
vt 0.599655 0.568027
vt 0.212631 0.572799
vt 0.208771 0.187855
vt 0.337924 0.187187
vt 0.341785 0.572131
vt 0.467077 0.186519
vt 0.470938 0.571463
vt 0.596231 0.185851
vt 0.600091 0.570796
vt 0.215952 0.594871
vt 0.786001 0.594871
vt 0.786001 0.819023
vt 0.215952 0.819023
mtllib Military SUV Engine.mtl
usemtl Default
g Default
f 5/1/1 4/2/1 3/3/1 2/4/1 1/5/1 6/6/1
f 7/7/2 1/8/2 2/9/2 8/10/2
f 8/10/3 2/9/3 3/11/3 9/12/3
f 9/12/4 3/11/4 4/13/4 10/14/4
f 10/15/5 4/16/5 5/17/5 11/18/5
f 11/18/6 5/17/6 6/19/6 12/20/6
f 12/20/7 6/19/7 1/21/7 7/22/7
f 11/3/8 12/4/8 7/5/8 8/6/8 9/1/8 10/2/8
f 16/23/1 13/24/1 14/25/1 15/26/1
f 17/24/9 18/25/9 14/26/9 13/23/9
f 18/24/5 19/25/5 15/26/5 14/23/5
f 19/24/10 20/25/10 16/26/10 15/23/10
f 20/25/8 19/26/8 18/23/8 17/24/8
f 21/24/1 22/25/1 23/26/1 24/23/1
f 25/24/11 26/25/11 22/26/11 21/23/11
f 27/26/12 28/23/12 24/24/12 23/25/12
f 28/24/3 25/25/3 21/26/3 24/23/3
f 27/26/8 26/23/8 25/24/8 28/25/8
